<?xml version="1.0" encoding="iso-8859-1"?>
<!-- Uploaded to: SVG Repo, www.svgrepo.com, Generator: SVG Repo Mixer Tools -->
<svg height="800px" width="800px" version="1.1" id="Layer_1" xmlns="http://www.w3.org/2000/svg" xmlns:xlink="http://www.w3.org/1999/xlink" 
	 viewBox="0 0 392.542 392.542" xml:space="preserve">
<path style="fill:#56ACE0;" d="M278.63,21.786H31.552c-5.301,0-9.632,4.331-9.632,9.632v51.394h266.537V31.483
	C288.392,26.117,283.996,21.786,278.63,21.786z"/>
<g>
	<path style="fill:#FFFFFF;" d="M298.218,369.907c23.337-9.438,72.533-35.491,72.533-65.358v-83.782
		c-39.499-16.097-61.22-37.042-72.533-50.36c-11.378,13.382-32.97,34.327-72.533,50.36v83.846
		C225.62,334.481,274.881,360.533,298.218,369.907z"/>
	<path style="fill:#FFFFFF;" d="M21.79,278.626c0,5.301,4.331,9.632,9.632,9.632H203.77v-74.99c0-4.59,2.844-8.663,7.111-10.214
		c48.808-18.166,69.172-44.606,76.8-54.497c0.259-0.323,0.388-0.453,0.646-0.776v-43.055H21.79"/>
</g>
<path style="fill:#56ACE0;" d="M298.218,346.246c-27.022-12.412-50.747-31.354-50.747-41.632V234.99
	c22.432-10.667,38.788-22.626,50.747-33.358c11.895,10.731,28.38,22.691,50.747,33.358v69.624
	C348.966,315.798,323.301,334.675,298.218,346.246z"/>
<g>
	<path style="fill:#194F82;" d="M68.917,41.503H49.847c-6.012,0-10.925,4.848-10.925,10.925s4.848,10.925,10.925,10.925h19.071
		c6.012,0,10.925-4.848,10.925-10.925S74.929,41.503,68.917,41.503z"/>
	<path style="fill:#194F82;" d="M260.335,41.503H105.507c-6.012,0-10.925,4.848-10.925,10.925s4.848,10.925,10.925,10.925h154.958
		c6.012,0,10.925-4.848,10.925-10.925S266.348,41.503,260.335,41.503z"/>
</g>
<path style="fill:#FFC10D;" d="M43.576,126.578v140.024H203.77v-53.333c0-4.59,2.844-8.663,7.111-10.214
	c25.665-9.503,43.442-21.333,55.661-31.806v-44.735H43.576V126.578z"/>
<path style="fill:#194F82;" d="M385.426,203.055c-45.899-17.002-66.586-41.309-75.248-52.493V31.547
	C310.178,14.158,296.02,0,278.63,0H31.552C14.162,0,0.004,14.158,0.004,31.547v247.143c0,17.39,14.158,31.547,31.547,31.547h172.606
	c5.43,48.937,81.261,78.416,90.246,81.648c2.521,0.84,5.042,0.905,7.564,0c9.244-3.426,90.57-34.974,90.57-87.273v-91.345
	C392.537,208.679,389.693,204.671,385.426,203.055z M21.79,31.547c0-5.301,4.331-9.632,9.632-9.632h247.143
	c5.301,0,9.632,4.331,9.632,9.632v51.394H21.79V31.547z M203.834,213.269v75.055H31.552c-5.301,0-9.632-4.331-9.632-9.632v-51.782
	h18.877c6.012,0,10.925-4.848,10.925-10.925c0-6.012-4.848-10.925-10.925-10.925H21.79v-17.067h48.032
	c6.012,0,10.925-4.848,10.925-10.925c0-6.012-4.848-10.925-10.925-10.925H21.79v-61.414h266.537v43.055
	c-0.259,0.323-0.388,0.453-0.646,0.776c-7.628,9.956-27.992,36.396-76.8,54.497C206.614,204.671,203.834,208.679,203.834,213.269z
	 M370.752,304.614c0,29.802-49.196,55.919-72.533,65.358c-23.337-9.438-72.533-35.362-72.533-65.358v-83.846
	c39.499-16.097,61.22-37.042,72.533-50.36c11.378,13.382,32.97,34.327,72.533,50.36V304.614z"/>
</svg>